<svg xmlns="http://www.w3.org/2000/svg" viewBox="0 0 811.39 372.37"><defs><style>.cls-1{fill:#fff}</style></defs><g id="DE"><path class="cls-1" d="M222.83 64.5c-.71 1.44-1.06 2.13-2.1 2.13-1.22 0-8.64-4.8-17.82-4.8-7 0-13 3.54-13 11.71 0 19.52 39.12 14 39.12 41.7 0 16.67-13 25.21-28.17 25.21-8.48 0-26.79-5-26.79-8.54a4.54 4.54 0 0 1 .68-2.11l2.48-5.5c.54-1.24 1.06-1.6 1.6-1.6 1.59 0 10.75 6.19 22.73 6.19 7.57 0 14.07-4.24 14.07-12.77 0-18.43-39.12-14.35-39.12-41.16 0-14.37 11.11-24.67 26.64-24.67 6 0 16.2 2.83 20.77 5.33 1.41.71 1.94 1.43 1.94 2.3 0 .54-.53 1.09-.7 1.78ZM330.84 135.84a1.86 1.86 0 0 1-2.11 2.11h-9.18a1.87 1.87 0 0 1-2.11-2.11V76.56c0-7.62-1.93-14.38-11.46-14.38-11.42 0-18.83 6.93-23.23 10.82v62.84a1.88 1.88 0 0 1-2.13 2.11h-9.16a1.87 1.87 0 0 1-2.13-2.11V74.61c0-5.85 0-7.8-.69-10.45-1.41-5.33-2.83-6.57-2.83-7.48 0-.35.2-.69.89-1.22l7.92-4.46c.35-.17.89-.72 1.41-.72 3.18 0 5.29 10.65 5.46 12.08 5.83-4.62 15-12.08 28.38-12.08 19.56 0 21 13.87 21 26.62ZM406 140.45c-23.79 0-34-19.36-34-44.72 0-24.49 10.21-45.44 35.78-45.44 24.14 0 34.34 19.54 34.34 44.57 0 24.82-10.37 45.59-36.12 45.59m21.66-45.8c0-17.39-4.72-33.36-20.6-33.36s-20.61 15.27-20.61 32.83c0 20.25 4.59 35.33 20.79 35.33 15.76 0 20.45-14.38 20.45-34.8ZM513.53 137.6c-.51 1.24-.72 1.59-2.31 1.59h-6.87c-1.57 0-1.76-.7-2.11-1.59l-29.6-80.92c0-.35-.34-.69-.34-1.22 0-.73.34-.91 1.58-1.23l8.64-2.33c.52 0 1.06-.37 1.78-.37s.67.72 1.23 1.44l19.54 57.67c1.26 3.73 2.28 7.8 3.15 11.17h.37a64.15 64.15 0 0 1 3.17-11L532.54 53c.54-.72.54-1.44 1.26-1.44s1.22.37 1.76.37l8.61 2.33c1.24.32 1.61.5 1.61 1.23 0 .53-.37.87-.37 1.22ZM577.89 60.94c-.19-.52-.54-.89-.54-1.41 0-1.94 14.81-9.24 27.86-9.24 23.43.2 37.17 18.12 37.17 45.07 0 26.1-13 45.09-34.89 45.09-29.42 0-32.07-28.75-32.07-44 0-2.5 0-3.91 1.93-3.91h50.59c0-10.82-4.22-30.36-24.32-30.36-11.46 0-20.62 7.3-21.68 7.3-.52 0-.69-.54-1-1.07l-3-7.47m12 42.59c0 9.24 3 25.92 18.29 25.92 16.23 0 19.75-17 19.75-25.92ZM366.71 45.36 456.31 0l.59 1.26-89.61 45.34-.58-1.24zM16 267l11.22 28.88a4.76 4.76 0 0 0 1.5 2.3 3.12 3.12 0 0 0 1.58.65v.92c-.73-.06-1.6-.1-2.6-.12h-6.59c-1.1 0-2 .06-2.66.12v-.92c1.56-.06 2.55-.33 3-.81s.32-1.49-.3-3.06l-8.28-22.35.74-.83-7.64 20a13.82 13.82 0 0 0-1 3.45 3.81 3.81 0 0 0 .23 2.17 2.19 2.19 0 0 0 1.35 1.1 8.69 8.69 0 0 0 2.39.37v.92c-.92-.06-1.84-.1-2.78-.12H1.52c-.57 0-1.08.06-1.54.12v-.92a4.4 4.4 0 0 0 1.93-1.15 8.86 8.86 0 0 0 1.84-3.13L14.44 267H16Zm4.83 19.5v.92H7.13l.46-.92ZM63.48 267.16v.92a5.51 5.51 0 0 0-2.35.55 2.28 2.28 0 0 0-1 1.5 12.91 12.91 0 0 0-.25 2.92v26.86h-1.55l-19.51-28.33v22.08a13 13 0 0 0 .28 3 2.23 2.23 0 0 0 1.2 1.54 7.66 7.66 0 0 0 2.8.6v.92c-.58-.06-1.32-.1-2.23-.12h-4.85q-1.16 0-1.89.12v-.92a5.93 5.93 0 0 0 2.3-.58 2.26 2.26 0 0 0 1.06-1.49 12.19 12.19 0 0 0 .28-2.9V272a8.46 8.46 0 0 0-.28-2.51 1.72 1.72 0 0 0-1.06-1.11 7.71 7.71 0 0 0-2.3-.34v-.92l1.89.09c.76 0 1.53.05 2.3.05s1.33 0 2-.05l1.7-.09 16.79 24v-17.89a11.67 11.67 0 0 0-.3-3 2.43 2.43 0 0 0-1.22-1.55 6.89 6.89 0 0 0-2.76-.57v-.92l2.21.09c.92 0 1.78.05 2.57.05s1.54 0 2.3-.05ZM96.23 267.16c-.12 1.29-.2 2.54-.25 3.75s-.07 2.14-.07 2.78v2c0 .62.06 1.19.09 1.65h-1a24.88 24.88 0 0 0-1.22-5.43 5.49 5.49 0 0 0-2.18-2.85 7.94 7.94 0 0 0-4.1-.87h-2v26.22a8.36 8.36 0 0 0 .35 2.76 2 2 0 0 0 1.38 1.22 13.7 13.7 0 0 0 3 .39v.92c-.86-.06-2-.1-3.31-.12h-8.3q-2 0-3.15.12v-.92a13.49 13.49 0 0 0 3-.39 2 2 0 0 0 1.38-1.22 8.06 8.06 0 0 0 .36-2.76v-26.19h-2a8 8 0 0 0-4 .87 5.34 5.34 0 0 0-2.21 2.85 25.73 25.73 0 0 0-1.19 5.43h-1.12q.09-.69.12-1.65v-2c0-.68 0-1.57-.07-2.78s-.13-2.46-.25-3.75l4.32.09c1.56 0 3.14.05 4.74.05h8.6c1.56 0 3.14 0 4.74-.05ZM115.09 267.16v.92a7.71 7.71 0 0 0-2.3.34 1.75 1.75 0 0 0-1.06 1.11 8.53 8.53 0 0 0-.27 2.51v22.81a8.6 8.6 0 0 0 .27 2.49 1.67 1.67 0 0 0 1.06 1.1 9 9 0 0 0 2.3.37v.92c-.73-.06-1.66-.1-2.78-.12h-7.04c-1.12 0-2 .06-2.74.12v-.92a9.19 9.19 0 0 0 2.35-.37 1.6 1.6 0 0 0 1-1.1 9.54 9.54 0 0 0 .25-2.49V272a8.13 8.13 0 0 0-.28-2.51 1.72 1.72 0 0 0-1.06-1.11 7.65 7.65 0 0 0-2.3-.34v-.92l2.74.09c1.12 0 2.32.05 3.61.05s2.31 0 3.43-.05ZM139.75 284.79v3.08h-16.61v-3.08ZM161.55 267l11.23 28.88a4.76 4.76 0 0 0 1.49 2.3 3.18 3.18 0 0 0 1.59.65v.92c-.74-.06-1.61-.1-2.6-.12h-6.59q-1.66 0-2.67.12v-.92q2.34-.09 3-.81t-.3-3.06l-8.28-22.35.73-.83-7.63 20a14.36 14.36 0 0 0-1 3.45 3.9 3.9 0 0 0 .23 2.17 2.18 2.18 0 0 0 1.36 1.1 8.63 8.63 0 0 0 2.39.37v.92q-1.38-.09-2.79-.12H147.07c-.56 0-1.08.06-1.54.12v-.92a4.43 4.43 0 0 0 1.94-1.15 9.17 9.17 0 0 0 1.84-3.13L160 267h1.56Zm4.83 19.5v.92h-13.71l.46-.92ZM196.05 266.52a11.45 11.45 0 0 1 4.92.89 19.11 19.11 0 0 1 3.45 2.1 1.87 1.87 0 0 0 .92.46c.59 0 1-.94 1.15-2.81h1.06c-.06 1.17-.11 2.57-.14 4.21s0 3.82 0 6.55h-1.06a32.35 32.35 0 0 0-.85-4.09 7.4 7.4 0 0 0-1.82-3.22 8.33 8.33 0 0 0-3.24-2.3 10.62 10.62 0 0 0-4.07-.83 7.68 7.68 0 0 0-4.23 1.17A9.66 9.66 0 0 0 189 272a17.92 17.92 0 0 0-1.93 5.08 28.57 28.57 0 0 0-.67 6.42q0 8.28 2.55 12.12a8.64 8.64 0 0 0 7.71 3.84 7.25 7.25 0 0 0 2.55-.41 9.71 9.71 0 0 0 1.73-.83 2.84 2.84 0 0 0 1-1.08 3.61 3.61 0 0 0 .23-1.4v-4.47a9.13 9.13 0 0 0-.35-2.92 2.07 2.07 0 0 0-1.35-1.29 10.44 10.44 0 0 0-2.95-.39v-.92c.59 0 1.28.06 2.07.07l2.51.05h5.37c.89 0 1.65-.07 2.23-.1v.92a3.18 3.18 0 0 0-1.44.33 1.49 1.49 0 0 0-.65 1.1 14.24 14.24 0 0 0-.16 2.53v9.11h-.92a6.78 6.78 0 0 0-.35-1.7c-.19-.62-.49-.92-.89-.92a1.81 1.81 0 0 0-.67.13 9.52 9.52 0 0 0-1.17.69 15.7 15.7 0 0 1-3.36 1.77 10.93 10.93 0 0 1-4 .67 17 17 0 0 1-8.41-1.95 12.79 12.79 0 0 1-5.32-5.66 22.37 22.37 0 0 1 .19-18.06 14.48 14.48 0 0 1 13.45-8.18ZM228.71 267.16v.92a7.71 7.71 0 0 0-2.3.34 1.75 1.75 0 0 0-1.06 1.11 8.53 8.53 0 0 0-.27 2.51v22.81a8.6 8.6 0 0 0 .27 2.49 1.67 1.67 0 0 0 1.06 1.1 9 9 0 0 0 2.3.37v.92c-.73-.06-1.66-.1-2.78-.12h-7.04c-1.12 0-2 .06-2.74.12v-.92a9.19 9.19 0 0 0 2.35-.37 1.56 1.56 0 0 0 1-1.1 9 9 0 0 0 .26-2.49V272a8.13 8.13 0 0 0-.28-2.51 1.72 1.72 0 0 0-1.06-1.11 7.65 7.65 0 0 0-2.3-.34v-.92l2.74.09c1.12 0 2.32.05 3.61.05s2.31 0 3.43-.05ZM264.91 267.16v.92a5.42 5.42 0 0 0-2.34.55 2.29 2.29 0 0 0-1 1.5 12.91 12.91 0 0 0-.25 2.92v26.86h-1.52l-19.5-28.33v22.08a13.08 13.08 0 0 0 .27 3 2.29 2.29 0 0 0 1.2 1.54 7.73 7.73 0 0 0 2.81.6v.92c-.59-.06-1.33-.1-2.24-.12h-4.85c-.77 0-1.39.06-1.88.12v-.92a6 6 0 0 0 2.3-.58 2.24 2.24 0 0 0 1-1.49 11.68 11.68 0 0 0 .28-2.9V272a8.13 8.13 0 0 0-.28-2.51 1.71 1.71 0 0 0-1-1.11 7.76 7.76 0 0 0-2.3-.34v-.92l1.88.09c.77 0 1.53.05 2.3.05s1.34 0 2-.05l1.7-.09 16.79 24v-17.89a11.67 11.67 0 0 0-.3-3 2.4 2.4 0 0 0-1.22-1.55 6.89 6.89 0 0 0-2.76-.57v-.92l2.21.09c.92 0 1.78.05 2.58.05s1.53 0 2.3-.05ZM287.09 266.52a11.51 11.51 0 0 1 4.92.89 19.83 19.83 0 0 1 3.45 2.1 1.83 1.83 0 0 0 .92.46c.58 0 1-.94 1.15-2.81h1.06c-.07 1.17-.11 2.57-.14 4.21s-.05 3.82-.05 6.55h-1.06a32.35 32.35 0 0 0-.85-4.09 7.48 7.48 0 0 0-1.81-3.22 8.3 8.3 0 0 0-3.25-2.3 10.58 10.58 0 0 0-4.07-.83 7.73 7.73 0 0 0-4.23 1.17A9.75 9.75 0 0 0 280 272a18.22 18.22 0 0 0-1.93 5.08 29.18 29.18 0 0 0-.66 6.42q0 8.28 2.55 12.12a8.62 8.62 0 0 0 7.7 3.84 7.31 7.31 0 0 0 2.56-.41 9.57 9.57 0 0 0 1.72-.83 2.84 2.84 0 0 0 1-1.08 3.44 3.44 0 0 0 .23-1.4v-4.47a9.18 9.18 0 0 0-.34-2.92 2.06 2.06 0 0 0-1.36-1.29 10.3 10.3 0 0 0-2.94-.39v-.92c.58 0 1.27.06 2.07.07l2.5.05h5.37c.89 0 1.64-.07 2.23-.1v.92a3.19 3.19 0 0 0-1.45.33 1.52 1.52 0 0 0-.65 1.1 15.28 15.28 0 0 0-.16 2.53v9.11h-.92a6.73 6.73 0 0 0-.34-1.7c-.2-.62-.5-.92-.9-.92a1.85 1.85 0 0 0-.67.13 9.52 9.52 0 0 0-1.17.69 15.46 15.46 0 0 1-3.36 1.77 10.87 10.87 0 0 1-3.95.67 17 17 0 0 1-8.42-1.95 12.77 12.77 0 0 1-5.31-5.66 19.71 19.71 0 0 1-1.82-8.81 20.12 20.12 0 0 1 2-9.25 14.48 14.48 0 0 1 13.46-8.18ZM321.63 267.16l2.74.09c1.12 0 2.23.05 3.33.05 1.47 0 2.88 0 4.21-.05s2.28 0 2.83 0q5.85 0 8.74 2.53a8.26 8.26 0 0 1 2.9 6.53 11.31 11.31 0 0 1-.58 3.47 8.86 8.86 0 0 1-2 3.36 10.43 10.43 0 0 1-3.86 2.51 17.16 17.16 0 0 1-6.21 1h-4.51v-.92h4a7.64 7.64 0 0 0 4.71-1.24 6.07 6.07 0 0 0 2.21-3.27 15.65 15.65 0 0 0 .58-4.37q0-4.36-1.57-6.53t-5.43-2.16a3.25 3.25 0 0 0-2.59.78 5.47 5.47 0 0 0-.63 3.18v22.72a6.83 6.83 0 0 0 .37 2.55 2 2 0 0 0 1.38 1.13 13.58 13.58 0 0 0 3 .32v1c-.83-.06-1.9-.1-3.22-.12H324.42c-1.12 0-2.06.06-2.83.12v-.92a9.27 9.27 0 0 0 2.35-.37 1.58 1.58 0 0 0 1-1.1 9 9 0 0 0 .26-2.49V272a9 9 0 0 0-.26-2.51 1.66 1.66 0 0 0-1.06-1.11 7.92 7.92 0 0 0-2.32-.34ZM365.19 267.16v.92a8.19 8.19 0 0 0-2.37.34 1.75 1.75 0 0 0-1.08 1.11 8.53 8.53 0 0 0-.27 2.51v23a8.07 8.07 0 0 0 .25 2.34 1.55 1.55 0 0 0 1 1 7.29 7.29 0 0 0 2.19.25h3a8.82 8.82 0 0 0 3.33-.55 5.73 5.73 0 0 0 2.28-1.66 7.62 7.62 0 0 0 1.42-2.85 26.08 26.08 0 0 0 .79-4.09h1c-.09 1-.13 2.27-.13 3.86 0 .61 0 1.51.06 2.69s.14 2.4.26 3.66c-1.57-.06-3.33-.1-5.29-.12h-11.52l-3.87.05c-1.3 0-2.55 0-3.75.07v-.92a9.27 9.27 0 0 0 2.35-.37 1.58 1.58 0 0 0 1-1.1 9 9 0 0 0 .26-2.49V272a9 9 0 0 0-.26-2.51 1.66 1.66 0 0 0-1.05-1.11 8.05 8.05 0 0 0-2.33-.34v-.92l2.74.09c1.12 0 2.32.05 3.61.05s2.32 0 3.47-.05ZM396.93 267l11.23 28.88a4.69 4.69 0 0 0 1.49 2.3 3.18 3.18 0 0 0 1.59.65v.92c-.74-.06-1.61-.1-2.6-.12h-6.59q-1.67 0-2.67.12v-.92q2.34-.09 3-.81t-.3-3.06l-8.28-22.35.73-.83-7.63 20a14.36 14.36 0 0 0-1 3.45 3.9 3.9 0 0 0 .23 2.17 2.18 2.18 0 0 0 1.36 1.1 8.63 8.63 0 0 0 2.39.37v.92q-1.38-.09-2.79-.12H382.45c-.56 0-1.08.06-1.54.12v-.92a4.43 4.43 0 0 0 1.94-1.15 9.17 9.17 0 0 0 1.84-3.13L395.37 267h1.56Zm4.83 19.5v.92h-13.71l.46-.92ZM431.16 266.52a12 12 0 0 1 5 .89 17.12 17.12 0 0 1 3.47 2.1c.61.46 1.08.51 1.4.16a4.77 4.77 0 0 0 .67-2.51h1.06c-.06 1.17-.11 2.57-.14 4.21s-.05 3.82-.05 6.55h-1.05c-.22-1.35-.43-2.45-.62-3.31a9 9 0 0 0-.79-2.21 8.09 8.09 0 0 0-1.31-1.79 7.67 7.67 0 0 0-3.26-2.39 11.46 11.46 0 0 0-4.1-.74 7.43 7.43 0 0 0-4.14 1.17 9.51 9.51 0 0 0-3 3.34 18.36 18.36 0 0 0-1.86 5.11 30.08 30.08 0 0 0-.65 6.44 28.24 28.24 0 0 0 .69 6.5 16.72 16.72 0 0 0 2 5 9.79 9.79 0 0 0 3.18 3.22 7.89 7.89 0 0 0 4.16 1.13 11.24 11.24 0 0 0 3.91-.76 7.07 7.07 0 0 0 3.22-2.33 7.39 7.39 0 0 0 1.77-3.1 31.07 31.07 0 0 0 .81-4.72h1.05c0 2.83 0 5.1.05 6.83s.08 3.2.14 4.4h-1.06a5.16 5.16 0 0 0-.62-2.49c-.29-.33-.78-.29-1.45.14a23.07 23.07 0 0 1-3.61 2.09 11.53 11.53 0 0 1-4.9.9 15.54 15.54 0 0 1-8-2 13.41 13.41 0 0 1-5.29-5.7 22.08 22.08 0 0 1 .07-18 15 15 0 0 1 5.36-6 14.37 14.37 0 0 1 7.89-2.13ZM474.12 267.16c-.12 1.17-.21 2.29-.25 3.38s-.07 1.93-.07 2.51v1.65c0 .52.06.95.1 1.29h-1.06a19.11 19.11 0 0 0-1-4.64 4.51 4.51 0 0 0-2-2.42 7.79 7.79 0 0 0-3.66-.71h-3.17a7.41 7.41 0 0 0-2.23.25 1.61 1.61 0 0 0-1 1 7.66 7.66 0 0 0-.27 2.37V295a7.61 7.61 0 0 0 .27 2.34 1.61 1.61 0 0 0 1 1 7.41 7.41 0 0 0 2.23.25h3a8.85 8.85 0 0 0 4.16-.83 5.28 5.28 0 0 0 2.35-2.71 20.41 20.41 0 0 0 1.28-5.05h1.06a32.91 32.91 0 0 0-.14 3.49c0 .62 0 1.5.07 2.67s.13 2.36.25 3.59c-1.56-.06-3.33-.1-5.29-.12H458.23l-3.87.05c-1.3 0-2.55 0-3.75.07v-.92a9.19 9.19 0 0 0 2.35-.37 1.56 1.56 0 0 0 1-1.1 9 9 0 0 0 .26-2.49V272a8.13 8.13 0 0 0-.28-2.51 1.72 1.72 0 0 0-1.06-1.11 7.65 7.65 0 0 0-2.3-.34v-.92l3.75.07h14.95c1.83.07 3.43.03 4.84-.03Zm-7.64 15.73v.92h-8.32v-.92Zm1.34-6.07c-.13 1.75-.18 3.08-.16 4s0 1.77 0 2.53 0 1.61.05 2.53.1 2.26.23 4h-1.04c-.16-1-.36-2-.6-2.92a4.63 4.63 0 0 0-1.31-2.27 4.15 4.15 0 0 0-2.92-.88v-.92a4 4 0 0 0 2.32-.6 3.91 3.91 0 0 0 1.31-1.56 8.41 8.41 0 0 0 .67-2l.39-1.91ZM511.61 267.16v.92a5.47 5.47 0 0 0-2.35.55 2.28 2.28 0 0 0-1 1.5 12.91 12.91 0 0 0-.25 2.92v26.86h-1.52L487 271.58v22.08a12.46 12.46 0 0 0 .28 3 2.25 2.25 0 0 0 1.19 1.54 7.78 7.78 0 0 0 2.81.6v.92c-.58-.06-1.33-.1-2.23-.12h-4.85q-1.15 0-1.89.12v-.92a5.93 5.93 0 0 0 2.3-.58 2.26 2.26 0 0 0 1.06-1.49 12.19 12.19 0 0 0 .28-2.9V272a8.46 8.46 0 0 0-.28-2.51 1.72 1.72 0 0 0-1.06-1.11 7.71 7.71 0 0 0-2.3-.34v-.92l1.89.09c.76 0 1.53.05 2.3.05s1.33 0 2-.05l1.71-.09 16.79 24v-17.89a11.67 11.67 0 0 0-.3-3 2.43 2.43 0 0 0-1.22-1.55 6.89 6.89 0 0 0-2.76-.57v-.92l2.21.09c.92 0 1.77.05 2.57.05s1.54 0 2.3-.05ZM544.36 267.16c-.12 1.29-.21 2.54-.25 3.75s-.07 2.14-.07 2.78v2c0 .62.07 1.19.1 1.65h-1.06a24.88 24.88 0 0 0-1.22-5.43 5.5 5.5 0 0 0-2.19-2.85 7.9 7.9 0 0 0-4.09-.87h-2v26.22a8.36 8.36 0 0 0 .35 2.76 2 2 0 0 0 1.38 1.22 13.7 13.7 0 0 0 3 .39v.92c-.86-.06-2-.1-3.31-.12h-8.3c-1.31 0-2.36.06-3.16.12v-.92a13.31 13.31 0 0 0 3-.39 2 2 0 0 0 1.46-1.19 7.78 7.78 0 0 0 .37-2.76v-26.22h-2a8 8 0 0 0-4.05.87 5.34 5.34 0 0 0-2.21 2.85 25.73 25.73 0 0 0-1.19 5.43h-1.06a14.65 14.65 0 0 0 .11-1.65v-2c0-.68 0-1.57-.07-2.78s-.13-2.46-.26-3.75l4.33.09c1.56 0 3.14.05 4.74.05h8.6c1.56 0 3.14 0 4.74-.05ZM562.07 267l11.22 28.88a4.76 4.76 0 0 0 1.5 2.3 3.18 3.18 0 0 0 1.59.65v.92c-.74-.06-1.61-.1-2.6-.12h-6.59q-1.66 0-2.67.12v-.92q2.34-.09 3-.81t-.3-3.06l-8.28-22.35.73-.83-7.63 20a13.91 13.91 0 0 0-1 3.45 3.9 3.9 0 0 0 .23 2.17 2.19 2.19 0 0 0 1.35 1.1 8.77 8.77 0 0 0 2.4.37v.92q-1.38-.09-2.79-.12H547.59c-.56 0-1.08.06-1.54.12v-.92a4.43 4.43 0 0 0 1.94-1.15 9 9 0 0 0 1.83-3.13L560.51 267h1.56Zm4.83 19.5v.92h-13.71l.46-.92ZM619 267.16c-.12 1.17-.21 2.29-.25 3.38s-.07 1.93-.07 2.51v1.65c0 .52.06.95.09 1.29h-1.05a19.11 19.11 0 0 0-1-4.64 4.51 4.51 0 0 0-2-2.42 7.79 7.79 0 0 0-3.66-.71H608a7.41 7.41 0 0 0-2.23.25 1.61 1.61 0 0 0-1 1 7.66 7.66 0 0 0-.27 2.37V295a7.61 7.61 0 0 0 .27 2.34 1.61 1.61 0 0 0 1 1 7.41 7.41 0 0 0 2.23.25h3a8.85 8.85 0 0 0 4.16-.83 5.28 5.28 0 0 0 2.35-2.71 20.41 20.41 0 0 0 1.19-5.05h1c-.09.89-.13 2-.13 3.49 0 .62 0 1.5.07 2.67s.13 2.36.25 3.59c-1.57-.06-3.33-.1-5.29-.12h-11.52l-3.87.05c-1.3 0-2.55 0-3.75.07v-.92a9.27 9.27 0 0 0 2.35-.37 1.58 1.58 0 0 0 1-1.1 9 9 0 0 0 .26-2.49V272a8.46 8.46 0 0 0-.28-2.51 1.72 1.72 0 0 0-1.06-1.11 7.71 7.71 0 0 0-2.3-.34v-.92l3.75.07h14.95c1.87.07 3.48.03 4.87-.03Zm-7.64 15.73v.92h-8.32v-.92Zm1.34-6.07c-.13 1.75-.18 3.08-.16 4s0 1.77 0 2.53v2.53c0 .92.11 2.26.23 4h-.97c-.16-1-.36-2-.6-2.92a4.63 4.63 0 0 0-1.31-2.27 4.16 4.16 0 0 0-2.92-.88v-.92a4 4 0 0 0 2.32-.6 3.91 3.91 0 0 0 1.31-1.56 8.41 8.41 0 0 0 .67-2l.39-1.91ZM637.51 266.61a9.84 9.84 0 0 1 3.73.55 14.28 14.28 0 0 1 2.25 1.2q.56.31.9.48a1.52 1.52 0 0 0 .66.16.7.7 0 0 0 .67-.51 6.77 6.77 0 0 0 .35-1.51h1c0 .55-.07 1.2-.11 1.95s-.08 1.74-.09 3 0 2.83 0 4.83h-1a14.37 14.37 0 0 0-1-4.37 8.44 8.44 0 0 0-2.49-3.45 6.35 6.35 0 0 0-4.16-1.34 5.56 5.56 0 0 0-3.89 1.41 4.78 4.78 0 0 0-1.54 3.7 5.51 5.51 0 0 0 1 3.38 11 11 0 0 0 2.79 2.53q1.77 1.17 4 2.6t4.14 2.92a12 12 0 0 1 2.9 3.2 8 8 0 0 1 1.06 4.23 8.22 8.22 0 0 1-1.41 4.94 8.45 8.45 0 0 1-3.74 2.93 13.54 13.54 0 0 1-5.16 1 12.26 12.26 0 0 1-4.09-.55 17.73 17.73 0 0 1-2.58-1.15 3.27 3.27 0 0 0-1.56-.64.69.69 0 0 0-.67.5 6.57 6.57 0 0 0-.34 1.52h-1.06c.06-.67.1-1.46.11-2.37s0-2.09 0-3.56v-5.57h1.06a20.32 20.32 0 0 0 1 5.34 8.72 8.72 0 0 0 2.62 4 7 7 0 0 0 4.71 1.5 7 7 0 0 0 2.9-.6 5 5 0 0 0 2.16-1.88 6 6 0 0 0 .83-3.32 6.16 6.16 0 0 0-.89-3.31 10.25 10.25 0 0 0-2.49-2.64 40.7 40.7 0 0 0-3.7-2.51q-2.16-1.38-4-2.76a11.19 11.19 0 0 1-3-3.22 8.22 8.22 0 0 1-1.13-4.37 7.64 7.64 0 0 1 1.31-4.6 7.85 7.85 0 0 1 3.4-2.67 11.63 11.63 0 0 1 4.55-.97ZM666.26 266.61a9.84 9.84 0 0 1 3.73.55 14.28 14.28 0 0 1 2.25 1.2q.56.31.9.48a1.52 1.52 0 0 0 .66.16.7.7 0 0 0 .67-.51 6.77 6.77 0 0 0 .35-1.51h1c0 .55-.07 1.2-.11 1.95s-.08 1.74-.09 3 0 2.83 0 4.83h-1a14.37 14.37 0 0 0-1-4.37 8.44 8.44 0 0 0-2.49-3.45 6.35 6.35 0 0 0-4.16-1.34 5.56 5.56 0 0 0-3.89 1.41 4.75 4.75 0 0 0-1.54 3.7 5.51 5.51 0 0 0 1 3.38 11 11 0 0 0 2.79 2.53q1.77 1.17 4 2.6t4.14 2.92a12 12 0 0 1 2.9 3.2 8 8 0 0 1 1.06 4.23 8.22 8.22 0 0 1-1.41 4.94 8.45 8.45 0 0 1-3.74 2.93 13.54 13.54 0 0 1-5.16 1 12.26 12.26 0 0 1-4.09-.55 17.73 17.73 0 0 1-2.58-1.15 3.27 3.27 0 0 0-1.56-.64.69.69 0 0 0-.67.5 6.57 6.57 0 0 0-.34 1.52h-1.06c.06-.67.1-1.46.11-2.37s0-2.09 0-3.56v-5.57h1.06a20.32 20.32 0 0 0 1 5.34 8.72 8.72 0 0 0 2.62 4 7 7 0 0 0 4.71 1.5 7 7 0 0 0 2.9-.6 5 5 0 0 0 2.16-1.88 6 6 0 0 0 .83-3.32 6.08 6.08 0 0 0-.9-3.31 10 10 0 0 0-2.48-2.64 40.7 40.7 0 0 0-3.7-2.51q-2.16-1.38-4-2.76a11.19 11.19 0 0 1-3-3.22 8.13 8.13 0 0 1-1.13-4.37 7.64 7.64 0 0 1 1.31-4.6 7.85 7.85 0 0 1 3.4-2.67 11.59 11.59 0 0 1 4.55-.97ZM708.12 267.16c-.12 1.17-.21 2.29-.25 3.38s-.07 1.93-.07 2.51v1.65c0 .52.06.95.1 1.29h-1.06a19.11 19.11 0 0 0-1-4.64 4.51 4.51 0 0 0-2-2.42 7.79 7.79 0 0 0-3.66-.71h-3.17a7.41 7.41 0 0 0-2.23.25 1.61 1.61 0 0 0-1 1 7.66 7.66 0 0 0-.27 2.37V295a7.61 7.61 0 0 0 .27 2.34 1.61 1.61 0 0 0 1 1 7.41 7.41 0 0 0 2.23.25h3a8.85 8.85 0 0 0 4.16-.83 5.28 5.28 0 0 0 2.35-2.71 20.41 20.41 0 0 0 1.28-5.05h1.05c-.09.89-.13 2-.13 3.49 0 .62 0 1.5.07 2.67s.13 2.36.25 3.59c-1.57-.06-3.33-.1-5.29-.12h-11.52l-3.87.05c-1.3 0-2.55 0-3.75.07v-.92a9.19 9.19 0 0 0 2.35-.37 1.58 1.58 0 0 0 1-1.1 9 9 0 0 0 .26-2.49V272a8.46 8.46 0 0 0-.28-2.51 1.72 1.72 0 0 0-1.06-1.11 7.71 7.71 0 0 0-2.3-.34v-.92l3.75.07h14.95c1.83.07 3.43.03 4.84-.03Zm-7.64 15.73v.92h-8.32v-.92Zm1.34-6.07c-.13 1.75-.18 3.08-.16 4s0 1.77 0 2.53v2.53c0 .92.11 2.26.24 4h-1c-.16-1-.36-2-.6-2.92a4.63 4.63 0 0 0-1.31-2.27 4.15 4.15 0 0 0-2.92-.88v-.92a4 4 0 0 0 2.32-.6 3.91 3.91 0 0 0 1.31-1.56 8.41 8.41 0 0 0 .67-2l.39-1.91ZM745.61 267.16v.92a5.47 5.47 0 0 0-2.35.55 2.28 2.28 0 0 0-1 1.5 12.81 12.81 0 0 0-.26 2.92v26.86h-1.51L721 271.58v22.08a12.46 12.46 0 0 0 .28 3 2.25 2.25 0 0 0 1.19 1.54 7.78 7.78 0 0 0 2.81.6v.92c-.58-.06-1.33-.1-2.23-.12h-4.85q-1.15 0-1.89.12v-.92a5.93 5.93 0 0 0 2.3-.58 2.29 2.29 0 0 0 1.06-1.49 12.27 12.27 0 0 0 .27-2.9V272a8.53 8.53 0 0 0-.27-2.51 1.75 1.75 0 0 0-1.06-1.11 7.71 7.71 0 0 0-2.3-.34v-.92l1.89.09c.76 0 1.53.05 2.3.05s1.33 0 2-.05l1.71-.09 16.79 24v-17.89a11.67 11.67 0 0 0-.3-3 2.43 2.43 0 0 0-1.22-1.55 7 7 0 0 0-2.76-.57v-.92l2.21.09c.92 0 1.77.05 2.57.05s1.54 0 2.3-.05ZM767.5 266.52a12 12 0 0 1 5 .89 17.12 17.12 0 0 1 3.47 2.1c.61.46 1.08.51 1.4.16a4.87 4.87 0 0 0 .67-2.51h1.06c-.06 1.17-.11 2.57-.14 4.21s-.05 3.82-.05 6.55h-1.06c-.21-1.35-.42-2.45-.62-3.31a9.49 9.49 0 0 0-.78-2.21 8.09 8.09 0 0 0-1.31-1.79 7.67 7.67 0 0 0-3.26-2.39 11.46 11.46 0 0 0-4.1-.74 7.43 7.43 0 0 0-4.14 1.17 9.42 9.42 0 0 0-3 3.34 17.75 17.75 0 0 0-1.86 5.11 29.45 29.45 0 0 0-.65 6.44 28.24 28.24 0 0 0 .69 6.5 16.72 16.72 0 0 0 2 5 9.7 9.7 0 0 0 3.18 3.22 7.89 7.89 0 0 0 4.16 1.13 11.24 11.24 0 0 0 3.91-.76 7.07 7.07 0 0 0 3.22-2.33 7.39 7.39 0 0 0 1.77-3.1 30 30 0 0 0 .8-4.72h1.06c0 2.83 0 5.1.05 6.83s.08 3.2.14 4.4H778a5.16 5.16 0 0 0-.62-2.49c-.29-.33-.78-.29-1.45.14a23.54 23.54 0 0 1-3.61 2.09 11.56 11.56 0 0 1-4.9.9 15.54 15.54 0 0 1-8-2 13.41 13.41 0 0 1-5.29-5.7 19.61 19.61 0 0 1-1.89-9 19.81 19.81 0 0 1 2-9 15 15 0 0 1 5.36-6 14.36 14.36 0 0 1 7.9-2.13ZM810.47 267.16c-.12 1.17-.21 2.29-.25 3.38s-.07 1.93-.07 2.51v1.65c0 .52.06.95.09 1.29h-1a19.11 19.11 0 0 0-1-4.64 4.51 4.51 0 0 0-2-2.42 7.79 7.79 0 0 0-3.66-.71h-3.17a7.41 7.41 0 0 0-2.23.25 1.61 1.61 0 0 0-1 1 7.66 7.66 0 0 0-.27 2.37V295a7.61 7.61 0 0 0 .27 2.34 1.61 1.61 0 0 0 1 1 7.41 7.41 0 0 0 2.23.25h3a8.85 8.85 0 0 0 4.16-.83 5.28 5.28 0 0 0 2.35-2.71 20.41 20.41 0 0 0 1.22-5.15h1.05c-.09.89-.13 2-.13 3.49 0 .62 0 1.5.07 2.67s.13 2.36.25 3.59c-1.57-.06-3.33-.1-5.29-.12h-11.52l-3.87.05c-1.3 0-2.55 0-3.75.07v-.92a9.27 9.27 0 0 0 2.35-.37 1.58 1.58 0 0 0 1-1.1 9 9 0 0 0 .26-2.49V272a8.46 8.46 0 0 0-.28-2.51 1.72 1.72 0 0 0-1.06-1.11 7.71 7.71 0 0 0-2.3-.34v-.92l3.75.07h14.95c1.84.07 3.44.03 4.85-.03Zm-7.64 15.73v.92h-8.32v-.92Zm1.34-6.07c-.13 1.75-.18 3.08-.16 4s0 1.77 0 2.53v2.53c0 .92.11 2.26.23 4h-1c-.16-1-.36-2-.6-2.92a4.63 4.63 0 0 0-1.31-2.27 4.16 4.16 0 0 0-2.92-.88v-.92a4 4 0 0 0 2.32-.6 3.91 3.91 0 0 0 1.31-1.56 8.41 8.41 0 0 0 .67-2l.39-1.91ZM269.26 339.16c-.12 1.23-.21 2.42-.26 3.59s-.06 2.05-.06 2.67v2c0 .59.06 1.18.09 1.64H268a24.56 24.56 0 0 0-1.13-5.27 5.21 5.21 0 0 0-2.14-2.76 8 8 0 0 0-4.09-.85h-2.44a7.41 7.41 0 0 0-2.23.25 1.61 1.61 0 0 0-1 1 7.66 7.66 0 0 0-.27 2.37v22.91a6.86 6.86 0 0 0 .36 2.55 2 2 0 0 0 1.38 1.13 13.66 13.66 0 0 0 3 .32v1c-.82-.06-1.9-.1-3.22-.12H248.61c-1.12 0-2.06.06-2.83.12v-.92a9.27 9.27 0 0 0 2.35-.37 1.58 1.58 0 0 0 1-1.1 9 9 0 0 0 .26-2.49V344a8.46 8.46 0 0 0-.28-2.51 1.72 1.72 0 0 0-1.06-1.11 7.71 7.71 0 0 0-2.3-.34v-.92l3.75.07h14.95c1.8.07 3.4.03 4.81-.03Zm-7 16.1v.92h-8.96v-.92Zm1-6.07c-.13 1.75-.18 3.08-.17 4s0 1.76 0 2.53v2.53c0 .92.11 2.25.23 4h-1.05a22.51 22.51 0 0 0-.56-2.92 4.59 4.59 0 0 0-1.33-2.28 4.21 4.21 0 0 0-2.9-.87v-.92a4 4 0 0 0 2.33-.6 4.06 4.06 0 0 0 1.31-1.56 8.53 8.53 0 0 0 .66-2c.14-.69.26-1.33.35-1.91ZM290.79 338.52a15.63 15.63 0 0 1 7.95 2 13.47 13.47 0 0 1 5.29 5.68 19.63 19.63 0 0 1 1.89 9 19.86 19.86 0 0 1-1.93 9 14.77 14.77 0 0 1-5.36 6 14.51 14.51 0 0 1-7.89 2.16 15.54 15.54 0 0 1-8-2 13.41 13.41 0 0 1-5.29-5.7 22.08 22.08 0 0 1 .07-18 15 15 0 0 1 5.36-6 14.37 14.37 0 0 1 7.91-2.14Zm-.19.82a6.88 6.88 0 0 0-5 2.07 13.49 13.49 0 0 0-3.26 5.71 27.83 27.83 0 0 0-1.15 8.42 25.16 25.16 0 0 0 1.29 8.48 13.07 13.07 0 0 0 3.49 5.57 7.25 7.25 0 0 0 4.92 2 6.8 6.8 0 0 0 4.95-2.07 14 14 0 0 0 3.27-5.72 27.59 27.59 0 0 0 1.17-8.4 25.18 25.18 0 0 0-1.29-8.51 13.09 13.09 0 0 0-3.5-5.54 7.26 7.26 0 0 0-4.89-2.01ZM341.48 339.16v.92a5.34 5.34 0 0 0-2.3.55 2.35 2.35 0 0 0-1.06 1.5 12.08 12.08 0 0 0-.28 2.92v13.29a33.16 33.16 0 0 1-.41 5.57 12 12 0 0 1-1.47 4.18 8.37 8.37 0 0 1-3.38 3.11 11.32 11.32 0 0 1-5.32 1.17 18.28 18.28 0 0 1-4.27-.5 8.25 8.25 0 0 1-3.64-1.94 9.77 9.77 0 0 1-2.16-2.71 10.65 10.65 0 0 1-1.06-3.57 41.38 41.38 0 0 1-.27-5.17V344a9 9 0 0 0-.26-2.51 1.66 1.66 0 0 0-1-1.11 7.92 7.92 0 0 0-2.35-.34v-.92l2.74.09c1.12 0 2.32.05 3.61.05s2.32 0 3.47-.05l2.83-.09v.92a8.19 8.19 0 0 0-2.37.34 1.75 1.75 0 0 0-1.08 1.11 8.53 8.53 0 0 0-.27 2.51v16a34 34 0 0 0 .25 4.33 10.74 10.74 0 0 0 1 3.42 5.18 5.18 0 0 0 2.11 2.26 7.41 7.41 0 0 0 3.66.8 8.06 8.06 0 0 0 5.27-1.54A8.26 8.26 0 0 0 336 365a22.92 22.92 0 0 0 .76-6.14v-13.63a9.77 9.77 0 0 0-.37-3 2.7 2.7 0 0 0-1.29-1.55 6.54 6.54 0 0 0-2.62-.57v-.92l2.25.09c.92 0 1.77.05 2.53.05s1.57 0 2.33-.05ZM377 339.16v.92a5.51 5.51 0 0 0-2.35.55 2.28 2.28 0 0 0-1 1.5 12.91 12.91 0 0 0-.25 2.92v26.86h-1.52l-19.51-28.33v22.08a13 13 0 0 0 .28 3 2.23 2.23 0 0 0 1.2 1.54 7.66 7.66 0 0 0 2.8.6v.92c-.58-.06-1.32-.1-2.23-.12h-4.85q-1.15 0-1.89.12v-.92a5.93 5.93 0 0 0 2.3-.58 2.26 2.26 0 0 0 1.06-1.49 12.19 12.19 0 0 0 .28-2.9V344a8.46 8.46 0 0 0-.28-2.51 1.72 1.72 0 0 0-1.06-1.11 7.71 7.71 0 0 0-2.3-.34v-.92l1.89.09c.76 0 1.53.05 2.3.05s1.33 0 2-.05l1.7-.09 16.79 24v-17.89a11.67 11.67 0 0 0-.3-3 2.43 2.43 0 0 0-1.22-1.55 6.89 6.89 0 0 0-2.76-.57v-.92l2.21.09c.92 0 1.78.05 2.57.05s1.54 0 2.3-.05ZM396.63 339.16q8.52 0 12.65 4.12t4.14 11.8a18.16 18.16 0 0 1-2 8.76 14.14 14.14 0 0 1-5.87 5.82 19.38 19.38 0 0 1-9.31 2.07c-.46 0-1.08 0-1.87-.05l-2.41-.07h-5.68c-1.12 0-2 .06-2.74.12v-.92a9.27 9.27 0 0 0 2.35-.37 1.58 1.58 0 0 0 1-1.1 9 9 0 0 0 .26-2.49V344a9 9 0 0 0-.26-2.51 1.66 1.66 0 0 0-1-1.11 8.05 8.05 0 0 0-2.33-.34v-.92l2.74.11q1.68.08 3.33 0l3.71-.09c1.32.04 2.43.02 3.29.02Zm-.78.83q-2.12 0-2.76.78a5.36 5.36 0 0 0-.64 3.17v23a5.27 5.27 0 0 0 .66 3.18 3.69 3.69 0 0 0 2.79.78 12.41 12.41 0 0 0 7.22-1.82 9.67 9.67 0 0 0 3.63-5.31 29.53 29.53 0 0 0 1.06-8.51 26.76 26.76 0 0 0-1.15-8.53 9.38 9.38 0 0 0-3.75-5.06 12.89 12.89 0 0 0-7.06-1.67ZM433.48 339l11.22 28.88a4.76 4.76 0 0 0 1.5 2.3 3.12 3.12 0 0 0 1.58.65v.92c-.73-.06-1.6-.1-2.59-.12h-6.59c-1.1 0-2 .06-2.66.12v-.92c1.56-.06 2.55-.33 3-.81s.32-1.49-.3-3.06l-8.28-22.35.74-.83-7.64 20a13.82 13.82 0 0 0-1 3.45 3.81 3.81 0 0 0 .23 2.17 2.19 2.19 0 0 0 1.35 1.1 8.69 8.69 0 0 0 2.39.37v.92c-.92-.06-1.84-.1-2.78-.12H419.01c-.57 0-1.08.06-1.54.12v-.92a4.4 4.4 0 0 0 1.93-1.15 8.86 8.86 0 0 0 1.84-3.13L431.91 339h1.57Zm4.83 19.5v.92H424.6l.46-.92ZM476.12 339.16c-.12 1.29-.21 2.54-.25 3.75s-.07 2.14-.07 2.78v2c0 .62.07 1.19.1 1.65h-1.06a24.88 24.88 0 0 0-1.22-5.43 5.55 5.55 0 0 0-2.19-2.85 7.9 7.9 0 0 0-4.09-.87h-2v26.22a8.36 8.36 0 0 0 .35 2.76 2 2 0 0 0 1.38 1.22 13.7 13.7 0 0 0 3 .39v.92c-.86-.06-2-.1-3.31-.12h-8.3c-1.31 0-2.36.06-3.16.12v-.92a13.31 13.31 0 0 0 3-.39 2 2 0 0 0 1.38-1.22 7.78 7.78 0 0 0 .37-2.76v-26.19h-2a8 8 0 0 0-4 .87 5.34 5.34 0 0 0-2.21 2.85 25.73 25.73 0 0 0-1.19 5.43h-1.06a14.65 14.65 0 0 0 .11-1.65v-2c0-.68 0-1.57-.07-2.78s-.13-2.46-.26-3.75l4.33.09c1.56 0 3.14.05 4.74.05h8.6c1.56 0 3.14 0 4.74-.05ZM495 339.16v.92a7.71 7.71 0 0 0-2.3.34 1.75 1.75 0 0 0-1.06 1.11 8.53 8.53 0 0 0-.27 2.51v22.81a8.6 8.6 0 0 0 .27 2.49 1.67 1.67 0 0 0 1.06 1.1 9 9 0 0 0 2.3.37v.92c-.74-.06-1.66-.1-2.78-.12h-7.04c-1.12 0-2 .06-2.74.12v-.92a9.27 9.27 0 0 0 2.35-.37 1.58 1.58 0 0 0 1-1.1 9 9 0 0 0 .26-2.49V344a8.46 8.46 0 0 0-.28-2.51 1.72 1.72 0 0 0-1.06-1.11 7.71 7.71 0 0 0-2.3-.34v-.92l2.74.09c1.12 0 2.32.05 3.61.05s2.31 0 3.43-.05ZM517.11 338.52a15.63 15.63 0 0 1 7.95 2 13.47 13.47 0 0 1 5.29 5.68 19.63 19.63 0 0 1 1.89 9 19.86 19.86 0 0 1-1.93 9 14.77 14.77 0 0 1-5.36 6 14.51 14.51 0 0 1-7.89 2.16 15.54 15.54 0 0 1-8-2 13.41 13.41 0 0 1-5.29-5.7 22.08 22.08 0 0 1 .07-18 15 15 0 0 1 5.36-6 14.37 14.37 0 0 1 7.91-2.14Zm-.19.82a6.88 6.88 0 0 0-5 2.07 13.49 13.49 0 0 0-3.26 5.71 27.83 27.83 0 0 0-1.15 8.42 25.16 25.16 0 0 0 1.29 8.48 13.07 13.07 0 0 0 3.49 5.57 7.25 7.25 0 0 0 4.92 2 6.8 6.8 0 0 0 5-2.07 14 14 0 0 0 3.27-5.72 27.59 27.59 0 0 0 1.17-8.4 25.18 25.18 0 0 0-1.29-8.51 13.09 13.09 0 0 0-3.5-5.54 7.26 7.26 0 0 0-4.94-2.01ZM568.53 339.16v.92a5.42 5.42 0 0 0-2.34.55 2.29 2.29 0 0 0-1 1.5 12.91 12.91 0 0 0-.25 2.92v26.86h-1.52l-19.5-28.33v22.08a13.08 13.08 0 0 0 .27 3 2.29 2.29 0 0 0 1.2 1.54 7.73 7.73 0 0 0 2.81.6v.92c-.59-.06-1.33-.1-2.23-.12H541.11c-.76 0-1.39.06-1.88.12v-.92a6 6 0 0 0 2.3-.58 2.24 2.24 0 0 0 1-1.49 11.68 11.68 0 0 0 .28-2.9V344a8.13 8.13 0 0 0-.28-2.51 1.71 1.71 0 0 0-1-1.11 7.76 7.76 0 0 0-2.3-.34v-.92l1.88.09c.77 0 1.54.05 2.3.05s1.34 0 2-.05l1.7-.09 16.79 24v-17.89a11.67 11.67 0 0 0-.3-3 2.4 2.4 0 0 0-1.22-1.55 6.89 6.89 0 0 0-2.76-.57v-.92l2.21.09c.92 0 1.78.05 2.58.05s1.53 0 2.3-.05Z"/></g></svg>